<svg width="21" height="21" viewBox="0 0 21 21" fill="none" xmlns="http://www.w3.org/2000/svg">
<g clip-path="url(#clip0_260_2735)">
<path fill-rule="evenodd" clip-rule="evenodd" d="M19.396 0.916748H1.604C0.994 0.916748 0.5 1.41075 0.5 2.02075V19.8127C0.5 20.4227 0.994 20.9167 1.604 20.9167H11.182V13.1717H8.576V10.1537H11.182V7.92675C11.182 5.34275 12.76 3.93675 15.065 3.93675C16.169 3.93675 17.117 4.01875 17.394 4.05575V6.75575H15.796C14.542 6.75575 14.3 7.35175 14.3 8.22575V10.1527H17.289L16.899 13.1707H14.299V20.9167H19.396C20.006 20.9167 20.5 20.4227 20.5 19.8127V2.02075C20.5 1.41075 20.006 0.916748 19.396 0.916748Z" fill="black" fill-opacity="0.8"/>
</g>
<defs>
<clipPath id="clip0_260_2735">
<rect width="20" height="20" fill="white" transform="translate(0.5 0.916748)"/>
</clipPath>
</defs>
</svg>
