<svg width="21" height="21" viewBox="0 0 21 21" fill="none" xmlns="http://www.w3.org/2000/svg">
<path d="M11.528 0.916748C12.653 0.919748 13.224 0.925748 13.717 0.939748L13.911 0.946748C14.135 0.954748 14.356 0.964748 14.623 0.976748C15.687 1.02675 16.413 1.19475 17.05 1.44175C17.71 1.69575 18.266 2.03975 18.822 2.59475C19.3307 3.09448 19.7242 3.69922 19.975 4.36675C20.222 5.00375 20.39 5.72975 20.44 6.79475C20.452 7.06075 20.462 7.28175 20.47 7.50675L20.476 7.70075C20.491 8.19275 20.497 8.76375 20.499 9.88875L20.5 10.6347V11.9447C20.5024 12.6742 20.4948 13.4036 20.477 14.1327L20.471 14.3267C20.463 14.5517 20.453 14.7727 20.441 15.0387C20.391 16.1037 20.221 16.8287 19.975 17.4667C19.7242 18.1343 19.3307 18.739 18.822 19.2387C18.3223 19.7474 17.7175 20.1409 17.05 20.3917C16.413 20.6387 15.687 20.8067 14.623 20.8567L13.911 20.8867L13.717 20.8927C13.224 20.9067 12.653 20.9137 11.528 20.9157L10.782 20.9167H9.473C8.74327 20.9193 8.01353 20.9117 7.284 20.8937L7.09 20.8877C6.85261 20.8788 6.61528 20.8684 6.378 20.8567C5.314 20.8067 4.588 20.6387 3.95 20.3917C3.28283 20.1408 2.67845 19.7473 2.179 19.2387C1.66995 18.7391 1.27611 18.1344 1.025 17.4667C0.778004 16.8297 0.610004 16.1037 0.560004 15.0387L0.530004 14.3267L0.525004 14.1327C0.50657 13.4036 0.498236 12.6742 0.500004 11.9447V9.88875C0.497236 9.15935 0.50457 8.42994 0.522004 7.70075L0.529004 7.50675C0.537004 7.28175 0.547004 7.06075 0.559004 6.79475C0.609004 5.72975 0.777004 5.00475 1.024 4.36675C1.2757 3.69895 1.67023 3.09418 2.18 2.59475C2.67916 2.0863 3.28319 1.69282 3.95 1.44175C4.588 1.19475 5.313 1.02675 6.378 0.976748C6.644 0.964748 6.866 0.954748 7.09 0.946748L7.284 0.940748C8.0132 0.922981 8.7426 0.915313 9.472 0.917748L11.528 0.916748ZM10.5 5.91675C9.17392 5.91675 7.90215 6.44353 6.96447 7.38121C6.02679 8.3189 5.5 9.59067 5.5 10.9167C5.5 12.2428 6.02679 13.5146 6.96447 14.4523C7.90215 15.39 9.17392 15.9167 10.5 15.9167C11.8261 15.9167 13.0979 15.39 14.0355 14.4523C14.9732 13.5146 15.5 12.2428 15.5 10.9167C15.5 9.59067 14.9732 8.3189 14.0355 7.38121C13.0979 6.44353 11.8261 5.91675 10.5 5.91675ZM10.5 7.91675C10.894 7.91668 11.2841 7.99422 11.6481 8.14492C12.0121 8.29562 12.3428 8.51655 12.6215 8.79507C12.9001 9.0736 13.1211 9.40428 13.272 9.76824C13.4228 10.1322 13.5004 10.5223 13.5005 10.9162C13.5006 11.3102 13.423 11.7003 13.2723 12.0643C13.1216 12.4283 12.9007 12.7591 12.6222 13.0377C12.3436 13.3163 12.013 13.5374 11.649 13.6882C11.2851 13.839 10.895 13.9167 10.501 13.9167C9.70535 13.9167 8.94229 13.6007 8.37968 13.0381C7.81707 12.4755 7.501 11.7124 7.501 10.9167C7.501 10.1211 7.81707 9.35804 8.37968 8.79543C8.94229 8.23282 9.70535 7.91675 10.501 7.91675M15.751 4.41675C15.4195 4.41675 15.1015 4.54844 14.8671 4.78286C14.6327 5.01728 14.501 5.33523 14.501 5.66675C14.501 5.99827 14.6327 6.31621 14.8671 6.55063C15.1015 6.78505 15.4195 6.91675 15.751 6.91675C16.0825 6.91675 16.4005 6.78505 16.6349 6.55063C16.8693 6.31621 17.001 5.99827 17.001 5.66675C17.001 5.33523 16.8693 5.01728 16.6349 4.78286C16.4005 4.54844 16.0825 4.41675 15.751 4.41675Z" fill="black" fill-opacity="0.8"/>
</svg>
