<svg width="21" height="21" viewBox="0 0 21 21" fill="none" xmlns="http://www.w3.org/2000/svg">
<path d="M3.35714 0.854248C1.78125 0.854248 0.5 2.14351 0.5 3.72925V18.1042C0.5 19.69 1.78125 20.9792 3.35714 20.9792H17.6429C19.2188 20.9792 20.5 19.69 20.5 18.1042V3.72925C20.5 2.14351 19.2188 0.854248 17.6429 0.854248H3.35714ZM16.6205 4.62769L11.9866 9.95542L17.4375 17.2058H13.1696L9.83036 12.808L6.00446 17.2058H3.88393L8.83929 11.5052L3.61161 4.62769H7.98661L11.0089 8.64819L14.5 4.62769H16.6205ZM14.933 15.93L7.34821 5.83608H6.08482L13.7545 15.93H14.9286H14.933Z" fill="black" fill-opacity="0.8"/>
</svg>
